<?xml version="1.0" standalone="no"?>
<!DOCTYPE svg PUBLIC "-//W3C//DTD SVG 20010904//EN"
 "http://www.w3.org/TR/2001/REC-SVG-20010904/DTD/svg10.dtd">
<svg version="1.0" xmlns="http://www.w3.org/2000/svg"
 width="512.000000pt" height="512.000000pt" viewBox="0 0 512.000000 512.000000"
 preserveAspectRatio="xMidYMid meet">
<metadata>
Created by potrace 1.11, written by Peter Selinger 2001-2013
</metadata>
<g transform="translate(0.000000,512.000000) scale(0.100000,-0.100000)"
fill="#000000" stroke="none">
<path d="M248 5105 c-96 -35 -191 -132 -225 -227 -17 -49 -18 -98 -18 -693 l0
-640 525 0 525 0 0 210 0 210 -312 3 -313 2 0 365 0 365 2130 0 2130 0 0 -370
0 -370 -1457 -2 -1458 -3 -3 -1815 c-2 -1631 0 -1820 14 -1870 31 -110 105
-193 214 -244 l55 -26 618 0 617 0 -2 1408 -3 1407 -205 0 -205 0 -3 -1197 -2
-1198 -335 0 -335 0 0 1555 0 1555 1458 2 1457 3 3 793 2 792 -2417 -1 c-2024
0 -2424 -3 -2455 -14z"/>
</g>
</svg>
